<?xml version="1.0" encoding="UTF-8"?>
<svg width="67px" height="17px" viewBox="0 0 67 17" version="1.1" xmlns="http://www.w3.org/2000/svg" xmlns:xlink="http://www.w3.org/1999/xlink">
    <title>AFCDF280-C9D5-4657-870A-5EB96FDCDF69@1x</title>
    <g id="Assets" stroke="none" stroke-width="1" fill="none" fill-rule="evenodd">
        <g transform="translate(-34.000000, -90.000000)" fill="#FFFFFF" id="BrandmarkWordmark-White">
            <g transform="translate(34.000000, 90.000000)">
                <g id="Logos/BrandmarkWordmark" transform="translate(0.000000, -0.000000)">
                    <path d="M64.8459711,12.9718279 L62.2773237,7.17648111 L59.7084957,12.9718279 L57.5546475,12.9718279 L61.200219,4.7487007 C61.200219,4.7487007 60.3086537,2.73425208 60.3064858,2.72953865 C60.0699996,2.19800847 59.4465363,1.95744211 58.9181009,2.19383889 L58.6351848,2.320739 L57.8391896,0.528003005 L57.8393702,0.528003005 L57.8426221,0.526552718 L58.5257038,0.220904736 C59.8073176,-0.353046338 61.3196363,0.230331602 61.8930564,1.52018059 C61.8979343,1.53069517 66.5617148,11.9892585 67,12.9718279 L64.8459711,12.9718279 Z M55.8322193,8.47340025 C55.8322193,9.96973384 54.6060686,11.2003024 53.1148873,11.2003024 C51.9208945,11.2003024 50.8985302,10.4211357 50.5379295,9.33414557 C50.4481407,9.06366705 50.3973747,8.77487866 50.3973747,8.47340025 C50.3973747,8.17355341 50.4481407,7.88530888 50.5379295,7.61464907 C50.8961816,6.53418526 51.9093321,5.74649815 53.1148873,5.74649815 C54.6060686,5.74649815 55.8322193,6.96020707 55.8322193,8.47340025 M57.6218536,8.45672195 C57.6218536,5.96259091 55.6002497,3.93418327 53.1148873,3.93418327 C52.1570192,3.93418327 51.2687059,4.23656811 50.5379295,4.74960713 L50.5379295,3.94741714 L48.562033,3.94741714 L48.562033,16.9978246 L50.5377488,16.9978246 L50.5379295,12.1638368 C51.2687059,12.6770571 52.1570192,12.9794419 53.1148873,12.9794419 C55.6002497,12.9794419 57.6218536,10.950853 57.6218536,8.45672195 M44.933263,3.94741714 L46.9050043,3.94741714 L46.9050043,16.9976433 L44.933263,16.9976433 L44.933263,3.94741714 Z M41.8679768,8.47394411 C41.8679768,9.9702777 40.6416455,11.2006649 39.1506449,11.2006649 C37.6592829,11.2006649 36.4331323,9.986956 36.4331323,8.47394411 C36.4331323,6.97761051 37.642662,5.74722329 39.1506449,5.74722329 C40.6416455,5.74722329 41.8679768,6.96093221 41.8679768,8.47394411 M43.6574305,8.45726581 C43.6574305,5.96331605 41.6358266,3.93490842 39.1506449,3.93490842 C36.6651018,3.93490842 34.6434979,5.96331605 34.6434979,8.45726581 C34.6434979,10.9513968 36.6651018,12.9798045 39.1506449,12.9798045 C41.6358266,12.9798045 43.6574305,10.9513968 43.6574305,8.45726581 M31.6708911,10.4737086 C31.6708911,12.9790793 29.6359182,15.0212647 27.1391742,15.0212647 L24.4133512,15.0212647 L24.4133512,5.92615245 L27.1391742,5.92615245 C29.6359182,5.92615245 31.6708911,7.96851909 31.6708911,10.4737086 M33.6429937,10.4737086 C33.6429937,6.87518399 30.725308,3.94741714 27.1391742,3.94741714 L22.4412486,3.94741714 L22.4412486,17 L27.1391742,17 C30.725308,17 33.6429937,14.0724144 33.6429937,10.4737086 M18.5026439,17 L16.5836558,17 C13.0005932,17 10.0798363,14.06897 10.0798363,10.4735273 C10.0798363,6.87808457 13.0005932,3.94723586 16.5836558,3.94723586 L18.5026439,3.94723586 L18.5026439,17 Z M0,17 L1.91898808,17 C5.50205064,17 8.42280759,14.06897 8.42280759,10.4735273 C8.42280759,6.87808457 5.50205064,3.94723586 1.91898808,3.94723586 L0,3.94723586 L0,17 Z" id="Logo" transform="translate(33.500000, 8.500000) scale(1, -1) translate(-33.500000, -8.500000) "></path>
                </g>
            </g>
        </g>
    </g>
</svg>