<?xml version="1.0" encoding="UTF-8"?>
<svg width="24px" height="24px" viewBox="0 0 24 24" version="1.1" xmlns="http://www.w3.org/2000/svg" xmlns:xlink="http://www.w3.org/1999/xlink">
    <title>cameraOff</title>
    <g id="Design" stroke="none" stroke-width="1" fill="none" fill-rule="evenodd">
        <path d="M2.17367119,1.20321387 C1.90511558,0.932262045 1.46990062,0.932262045 1.20134108,1.20321387 C0.932938687,1.47432036 0.932938687,1.91366921 1.20134108,2.18477967 L4.15270672,5.16417891 L2.37501228,5.16417891 C1.61569121,5.16417891 1,5.78571828 1,6.55225177 L1,17.6568346 C1,18.4235268 1.61569121,19.0449075 2.37501228,19.0449075 L16.125135,19.0449075 C16.6077644,19.0449075 17.0325646,18.7937853 17.2777882,18.4139292 L21.6192912,22.7966701 C21.8878469,23.0677766 22.323219,23.0677766 22.5916214,22.7966701 C22.860177,22.5257183 22.860177,22.0862148 22.5916214,21.8151043 L2.17367119,1.20321387 Z M17.4999509,14.1868508 L17.4999509,14.8808872 L7.87486495,5.16437721 L16.1249386,5.16437721 C16.8844168,5.16437721 17.4999509,5.78591658 17.4999509,6.55245007 L17.4999509,10.0226322 L21.0100822,8.2508167 C21.9243868,7.78946094 23,8.4605783 23,9.49250736 L23,14.716817 C23,15.74875 21.9243868,16.4198238 21.0100822,15.9585077 L17.4999509,14.1868508 Z" id="cameraOff" fill="#FFFFFF" fill-rule="nonzero"></path>
    </g>
</svg>