<?xml version="1.0" encoding="UTF-8"?>
<svg width="24px" height="24px" viewBox="0 0 24 24" version="1.1" xmlns="http://www.w3.org/2000/svg" xmlns:xlink="http://www.w3.org/1999/xlink">
    <title>volumeOn</title>
    <g id="Design" stroke="none" stroke-width="1" fill="none" fill-rule="evenodd">
        <path d="M13.0408361,2.59822848 C12.9791533,2.3329947 12.7813338,2.11944971 12.5202764,2.03651315 C12.2589079,1.95387766 11.9732314,2.01361131 11.7679359,2.19435248 L5.10034116,7.91371074 C5.04364288,7.9619911 4.98040341,8.002225 4.91279836,8.0334807 L0.446734034,8.0334807 C0.199999931,8.0334807 0,8.23186134 0,8.47697895 L0,16.5075956 C0,16.6255116 0.0470404175,16.7381668 0.130839735,16.8214124 C0.214642242,16.9046658 0.3280404,16.9513949 0.446726059,16.9513949 L4.91279039,16.9513949 C4.98039224,16.982653 5.04363012,17.0228861 5.10033319,17.0711649 L11.7592351,22.8081119 C11.9847793,23.0040206 12.3031619,23.0544655 12.5788377,22.9384034 C12.8548484,22.8220324 13.0392729,22.5595954 13.0542263,22.262171 L13.0542263,2.74023 C13.0536033,2.69256921 13.0492418,2.64521899 13.0408305,2.59817302 L13.0408361,2.59822848 Z M19.0097331,4.81459656 C19.3480372,4.81459656 19.641996,5.00446173 19.7908649,5.28344761 L19.79855,5.3 L20.0258064,5.61318155 L20.1225441,5.74942343 C20.4780805,6.25463485 20.8078767,6.77641066 21.1227977,7.36078548 C22.0252588,9.03541342 22.56535,10.7847813 22.56535,12.5808808 C22.56535,14.4058786 22.0231036,16.187643 21.1248146,17.8619427 C20.5897667,18.8592057 20.0518764,19.6068037 19.6781233,20.0376914 C19.3579289,20.4068332 18.7991115,20.4465129 18.4299698,20.1263184 C18.060828,19.806124 18.0211484,19.2473066 18.3413428,18.8781649 L18.4281217,18.773206 L18.6267131,18.513483 C18.6528556,18.4780332 18.68026,18.4404317 18.7088295,18.4007238 C19.0001789,17.9957859 19.2926232,17.5338781 19.5654685,17.0253282 C20.3364401,15.5883324 20.79575,14.0790885 20.79575,12.5808808 C20.79575,11.1151414 20.3395889,9.6376249 19.5650029,8.20028497 C19.2865504,7.68358211 18.9932188,7.21949741 18.6753771,6.76784958 L18.3072815,6.255464 L18.2512935,6.16797066 L18.1760761,6.01187155 L18.1562392,5.95412125 C18.1537083,5.94385702 18.1514794,5.93274133 18.149424,5.91997637 L18.1321419,5.73902053 C18.1299715,5.70917965 18.1275892,5.67529607 18.1248665,5.63657198 L18.2029874,5.41430897 C18.3206873,5.09386692 18.3933577,5.00716987 18.6831814,4.91066954 L18.8852315,4.84964456 C18.9239487,4.83862821 18.9653618,4.82702672 19.0097331,4.81459656 Z M15.8146069,6.87771077 C16.1529111,6.87771077 16.4468698,7.06757595 16.5957387,7.34656183 L16.60455,7.365 L16.8055514,7.64479915 C17.0641047,8.01193135 17.2990879,8.38200842 17.525565,8.8001978 C18.1774896,10.0039748 18.5680233,11.2631522 18.5678731,12.5675703 C18.5678731,13.8955262 18.1760878,15.1840206 17.528528,16.391097 C17.1438442,17.1081623 16.7562838,17.6465318 16.4826981,17.9616115 C16.1623133,18.330588 15.6034756,18.3699795 15.234499,18.0495947 C14.8655224,17.7292099 14.826131,17.1703722 15.1465158,16.8013956 L15.265583,16.6527328 L15.3884676,16.4867467 C15.585734,16.2127192 15.7841027,15.8994772 15.9691516,15.554539 C16.4893828,14.5848081 16.7982726,13.568937 16.7982726,12.5674681 C16.798385,11.5948561 16.4925074,10.6086311 15.9695043,9.64290727 C15.7794666,9.29200311 15.5803007,8.97833512 15.3587341,8.66372197 L15.0891848,8.28428934 L15.0381527,8.2001428 L15.0134379,8.1456724 L14.9682295,8.03310915 L14.9442597,7.95645659 C14.941381,7.94517859 14.939055,7.93417839 14.9372734,7.92274965 L14.9330505,7.84338382 L14.9414976,7.71982788 L14.9622188,7.51817682 L15.098191,7.301023 C15.275224,7.02688356 15.3520437,6.96916291 15.6114862,6.91534409 L15.8146069,6.87771077 Z" id="Path-2" fill="#FFFFFF" fill-rule="nonzero"></path>
    </g>
</svg>