<?xml version="1.0" encoding="UTF-8"?>
<svg width="24px" height="24px" viewBox="0 0 24 24" version="1.1" xmlns="http://www.w3.org/2000/svg" xmlns:xlink="http://www.w3.org/1999/xlink">
    <title>volumeOff</title>
    <g id="Design" stroke="none" stroke-width="1" fill="none" fill-rule="evenodd">
        <path d="M23.6356465,8.48869101 C23.9553412,8.81049405 23.9804158,9.31401127 23.7119708,9.66432844 L23.631482,9.75581952 L20.865,12.503 L23.631482,15.2506538 C23.9825399,15.5994117 23.9844044,16.1667245 23.6356465,16.5177823 C23.3159517,16.8395854 22.8126102,16.867969 22.4605361,16.6018325 L22.368518,16.5219468 L19.594,13.765 L16.8207339,16.5219468 C16.4696761,16.8707047 15.9023633,16.8688402 15.5536054,16.5177823 C15.2339107,16.1959793 15.2088361,15.6924621 15.4772811,15.3421449 L15.5577699,15.2506538 L18.323,12.503 L15.5577699,9.75581952 C15.206712,9.40706162 15.2048475,8.83974887 15.5536054,8.48869101 C15.8733002,8.16688797 16.3766417,8.13850436 16.7287158,8.40464088 L16.8207339,8.48452655 L19.594,11.24 L22.368518,8.48452655 C22.7195758,8.13576866 23.2868886,8.13763315 23.6356465,8.48869101 Z M13.0408361,2.59822848 C12.9791533,2.3329947 12.7813338,2.11944971 12.5202764,2.03651315 C12.2589079,1.95387766 11.9732314,2.01361131 11.7679359,2.19435248 L5.10034116,7.91371074 C5.04364288,7.9619911 4.98040341,8.002225 4.91279836,8.0334807 L0.446734034,8.0334807 C0.199999931,8.0334807 0,8.23186134 0,8.47697895 L0,16.5075956 C0,16.6255116 0.0470404175,16.7381668 0.130839735,16.8214124 C0.214642242,16.9046658 0.3280404,16.9513949 0.446726059,16.9513949 L4.91279039,16.9513949 C4.98039224,16.982653 5.04363012,17.0228861 5.10033319,17.0711649 L11.7592351,22.8081119 C11.9847793,23.0040206 12.3031619,23.0544655 12.5788377,22.9384034 C12.8548484,22.8220324 13.0392729,22.5595954 13.0542263,22.262171 L13.0542263,2.74023 C13.0536033,2.69256921 13.0492418,2.64521899 13.0408305,2.59817302 L13.0408361,2.59822848 Z" id="Combined-Shape" fill="#FFFFFF" fill-rule="nonzero"></path>
    </g>
</svg>